<mxfile host="app.diagrams.net" agent="Mozilla/5.0 (X11; Linux x86_64) AppleWebKit/537.36 (KHTML, like Gecko) Chrome/132.0.0.0 Safari/537.36" version="26.0.10">
  <diagram name="Page-1" id="dk2FRSk-a_MqC82rYBNf">
    <mxGraphModel grid="1" page="1" gridSize="10" guides="1" tooltips="1" connect="1" arrows="1" fold="1" pageScale="1" pageWidth="827" pageHeight="1169" math="0" shadow="0">
      <root>
        <mxCell id="0" />
        <mxCell id="1" parent="0" />
        <mxCell id="yYL735lNImk8aysMsxy9-1" value="our CICD pipline:&amp;nbsp;" style="text;html=1;align=center;verticalAlign=middle;whiteSpace=wrap;rounded=0;" vertex="1" parent="1">
          <mxGeometry x="-20" y="30" width="110" height="30" as="geometry" />
        </mxCell>
        <mxCell id="yYL735lNImk8aysMsxy9-2" value="" style="shape=link;html=1;rounded=0;" edge="1" parent="1">
          <mxGeometry width="100" relative="1" as="geometry">
            <mxPoint x="60" y="120" as="sourcePoint" />
            <mxPoint x="460" y="120" as="targetPoint" />
          </mxGeometry>
        </mxCell>
        <mxCell id="yYL735lNImk8aysMsxy9-3" value="&lt;font style=&quot;color: rgb(255, 255, 255);&quot;&gt;CI&lt;/font&gt;" style="text;html=1;align=center;verticalAlign=middle;whiteSpace=wrap;rounded=0;fillColor=#007FFF;" vertex="1" parent="1">
          <mxGeometry x="170" y="80" width="60" height="30" as="geometry" />
        </mxCell>
        <mxCell id="yYL735lNImk8aysMsxy9-4" value="&lt;font style=&quot;color: rgb(0, 127, 255);&quot;&gt;1. test&amp;nbsp;&lt;/font&gt;" style="text;html=1;align=center;verticalAlign=middle;resizable=0;points=[];autosize=1;strokeColor=none;fillColor=none;" vertex="1" parent="1">
          <mxGeometry x="180" y="130" width="60" height="30" as="geometry" />
        </mxCell>
        <mxCell id="yYL735lNImk8aysMsxy9-5" value="&lt;font style=&quot;color: rgb(0, 127, 255);&quot;&gt;2. merge&lt;/font&gt;" style="text;html=1;align=center;verticalAlign=middle;resizable=0;points=[];autosize=1;strokeColor=none;fillColor=none;" vertex="1" parent="1">
          <mxGeometry x="250" y="130" width="70" height="30" as="geometry" />
        </mxCell>
        <mxCell id="yYL735lNImk8aysMsxy9-6" value="&lt;font style=&quot;color: rgb(255, 255, 255);&quot;&gt;CD&lt;/font&gt;" style="text;html=1;align=center;verticalAlign=middle;whiteSpace=wrap;rounded=0;fillColor=#00CC66;" vertex="1" parent="1">
          <mxGeometry x="330" y="80" width="60" height="30" as="geometry" />
        </mxCell>
        <mxCell id="yYL735lNImk8aysMsxy9-7" value="&lt;font style=&quot;color: rgb(0, 204, 102);&quot;&gt;3. deploy to VM&lt;/font&gt;" style="text;html=1;align=center;verticalAlign=middle;resizable=0;points=[];autosize=1;strokeColor=none;fillColor=none;" vertex="1" parent="1">
          <mxGeometry x="330" y="130" width="110" height="30" as="geometry" />
        </mxCell>
        <mxCell id="yYL735lNImk8aysMsxy9-8" value="&lt;div style=&quot;text-align: center;&quot;&gt;&lt;font style=&quot;color: rgb(255, 0, 0);&quot;&gt;&lt;span style=&quot;text-wrap-mode: nowrap;&quot;&gt;Trigger: git push&amp;nbsp;&lt;/span&gt;&lt;/font&gt;&lt;/div&gt;" style="text;whiteSpace=wrap;html=1;" vertex="1" parent="1">
          <mxGeometry x="60" y="130" width="80" height="30" as="geometry" />
        </mxCell>
        <mxCell id="yYL735lNImk8aysMsxy9-11" value="" style="edgeStyle=orthogonalEdgeStyle;rounded=0;orthogonalLoop=1;jettySize=auto;html=1;entryX=0;entryY=0.5;entryDx=0;entryDy=0;curved=1;strokeColor=light-dark(#FF0000,#FFFFFF);" edge="1" parent="1" source="yYL735lNImk8aysMsxy9-9" target="yYL735lNImk8aysMsxy9-8">
          <mxGeometry relative="1" as="geometry">
            <mxPoint x="20" y="190" as="targetPoint" />
          </mxGeometry>
        </mxCell>
        <mxCell id="yYL735lNImk8aysMsxy9-9" value="&lt;div style=&quot;text-align: center;&quot;&gt;&lt;font style=&quot;color: rgb(255, 0, 0);&quot;&gt;&lt;span style=&quot;text-wrap-mode: nowrap;&quot;&gt;needs a webhook&lt;/span&gt;&lt;/font&gt;&lt;/div&gt;" style="text;whiteSpace=wrap;html=1;" vertex="1" parent="1">
          <mxGeometry x="-20" y="80" width="80" height="30" as="geometry" />
        </mxCell>
        <mxCell id="yYL735lNImk8aysMsxy9-12" value="" style="shape=link;html=1;rounded=0;" edge="1" parent="1">
          <mxGeometry width="100" relative="1" as="geometry">
            <mxPoint x="60" y="170" as="sourcePoint" />
            <mxPoint x="460" y="170" as="targetPoint" />
          </mxGeometry>
        </mxCell>
      </root>
    </mxGraphModel>
  </diagram>
</mxfile>
